<?xml version="1.0" encoding="UTF-8"?><svg id="Layer_2" xmlns="http://www.w3.org/2000/svg" viewBox="0 0 405 167.14"><defs><style>.cls-1{fill:#f2a53b;}.cls-2{fill:#952241;}.cls-3{fill:#151419;}.cls-4{stroke-width:5.14px;}.cls-4,.cls-5{fill:none;stroke:#000;stroke-miterlimit:10;}.cls-5{stroke-width:4px;}</style></defs><g id="Layer_1-2"><circle class="cls-4" cx="198.5" cy="83.57" r="81"/><circle class="cls-2" cx="201.13" cy="77.6" r="48.37"/><rect class="cls-1" y="65.07" width="405" height="81"/><g><path class="cls-3" d="M36.05,109.92H16.14c-1.56,0-2.87-1.08-2.87-2.37,0-1.35,1.31-2.44,2.87-2.44h19.91v-5.48c0-6.57-5.98-11.37-13.36-11.37s-13.36,4.81-13.36,11.37v25.79c0,1.35-1.39,2.5-3.03,2.5s-3.03-1.15-3.03-2.5v-25.79c0-9.28,8.6-16.11,19.42-16.11s19.42,6.84,19.42,16.11v25.79c0,1.35-1.39,2.5-3.03,2.5s-3.03-1.15-3.03-2.5v-15.5Z"/><path class="cls-3" d="M54.98,127.46c-1.72,0-3.2-1.15-3.2-2.64v-38.39c0-1.35,1.39-2.5,3.03-2.5s3.03,1.15,3.03,2.5v36.29h23.02c1.56,0,2.87,1.08,2.87,2.37s-1.31,2.37-2.87,2.37h-25.89Z"/><path class="cls-3" d="M92.59,89.14h-15.4c-1.56,0-2.87-1.08-2.87-2.37s1.31-2.37,2.87-2.37h36.87c1.56,0,2.87,1.08,2.87,2.37s-1.31,2.37-2.87,2.37h-15.4v36.29c0,1.35-1.39,2.5-3.03,2.5s-3.03-1.15-3.03-2.5v-36.29Z"/><path class="cls-3" d="M126.27,127.46c-1.72,0-3.2-1.15-3.2-2.64v-37.78c0-1.49,1.47-2.64,3.2-2.64h26.55c1.56,0,2.87,1.08,2.87,2.37s-1.31,2.37-2.87,2.37h-23.68v14.42h21.22c1.56,0,2.87,1.08,2.87,2.37s-1.31,2.37-2.87,2.37h-21.22v14.42h23.68c1.56,0,2.87,1.08,2.87,2.37s-1.31,2.37-2.87,2.37h-26.55Z"/><path class="cls-3" d="M176.75,108.64c-.49-.47-.82-1.08-.82-1.69,0-1.35,1.23-2.51,2.95-2.51h6.39c6.56,0,11.64-2.3,11.64-7.65s-5.08-7.65-11.64-7.65h-15.98v36.29c0,1.35-1.39,2.44-3.03,2.44s-3.03-1.08-3.03-2.44v-38.39c0-1.42,1.39-2.64,3.2-2.64h21.22c8.6,0,15.24,5.42,15.24,12.39,0,8.06-7.95,12.39-17.54,12.39l16.06,14.62c.57,.47,.82,1.08,.82,1.69,0,1.29-1.23,2.37-3.03,2.37-.82,0-1.64-.2-2.21-.75l-20.24-18.48Z"/><path class="cls-3" d="M251.4,86.43c0-1.35,1.39-2.5,3.03-2.5s3.03,1.15,3.03,2.5v31.01c0,6.43-5.74,10.9-13.03,10.9s-13.11-4.47-13.11-10.9v-23.02c0-3.45-3.2-6.03-7.05-6.03s-6.96,2.57-6.96,6.03v31.01c0,1.35-1.39,2.5-3.03,2.5s-3.03-1.15-3.03-2.5v-31.01c0-6.43,5.74-10.9,13.03-10.9s13.11,4.47,13.11,10.9v23.02c0,3.45,3.2,6.03,7.05,6.03s6.96-2.57,6.96-6.03v-31.01Z"/><path class="cls-3" d="M299.91,109.92h-19.91c-1.56,0-2.87-1.08-2.87-2.37,0-1.35,1.31-2.44,2.87-2.44h19.91v-5.48c0-6.57-5.98-11.37-13.36-11.37s-13.36,4.81-13.36,11.37v25.79c0,1.35-1.39,2.5-3.03,2.5s-3.03-1.15-3.03-2.5v-25.79c0-9.28,8.6-16.11,19.42-16.11s19.42,6.84,19.42,16.11v25.79c0,1.35-1.39,2.5-3.03,2.5s-3.03-1.15-3.03-2.5v-15.5Z"/><path class="cls-3" d="M326.95,89.14h-15.41c-1.56,0-2.87-1.08-2.87-2.37s1.31-2.37,2.87-2.37h36.87c1.56,0,2.87,1.08,2.87,2.37s-1.31,2.37-2.87,2.37h-15.4v36.29c0,1.35-1.39,2.5-3.03,2.5s-3.03-1.15-3.03-2.5v-36.29Z"/><path class="cls-3" d="M360.63,127.46c-1.72,0-3.2-1.15-3.2-2.64v-37.78c0-1.49,1.48-2.64,3.2-2.64h26.55c1.56,0,2.87,1.08,2.87,2.37s-1.31,2.37-2.87,2.37h-23.68v14.42h21.22c1.56,0,2.87,1.08,2.87,2.37s-1.31,2.37-2.87,2.37h-21.22v14.42h23.68c1.56,0,2.87,1.08,2.87,2.37s-1.31,2.37-2.87,2.37h-26.55Z"/></g><line class="cls-5" x1="40" y1="66.07" x2="364" y2="66.07"/><line class="cls-5" x1="64.77" y1="145.68" x2="162" y2="145.68"/><line class="cls-5" x1="235.95" y1="146.33" x2="333.18" y2="146.33"/></g></svg>