<?xml version="1.0" encoding="UTF-8"?><svg id="Layer_2" xmlns="http://www.w3.org/2000/svg" viewBox="0 0 1919.99 128.69"><defs><style>.cls-1{fill:none;stroke:#000;stroke-miterlimit:10;stroke-width:6px;}</style></defs><g id="Layer_1-2"><g><path d="M254.08,4.02h42.03c35.59,0,63.14,26.14,63.14,60.12,0,32.17-24.53,60.53-63.14,60.53h-42.03V4.02Zm42.03,115.02c33.98,0,55.7-25.74,55.7-54.9,0-30.76-24.33-54.49-55.7-54.49h-34.59V119.04h34.59Zm-19.91-106.57h27.95l5.63,1.01h-33.58v-1.01Zm0,4.02h42.43l2.21,1.01h-44.64v-1.01Zm0,4.02h49.67l1.41,1h-51.07v-1Zm0,4.62h19.3c25.34,0,40.82,17.09,40.82,39.01,0,23.73-17.69,39.21-40.82,39.21h-19.3V25.13Zm0,82.04h51.48l-1.41,1.01h-50.07v-1.01Zm0,4.02h45.04l-2.21,1.01h-42.83v-1.01Zm0,4.02h33.98l-4.02,.8h-29.96v-.8Zm19.3-17.49c18.9,0,33.38-13.27,33.38-33.58,0-18.7-12.67-33.38-33.38-33.38h-11.86V97.73h11.86Zm14.68,5.63h22.32l-.8,.8h-24.13l2.61-.8Zm21.11-79.02l-.2-.2,1.61,1.21h-21.52l-3.22-1h23.33Zm-12.06,75h17.7l-1.01,1h-18.5l1.81-1Zm16.29-70.98l1.01,1h-16.49l-1.61-1h17.09Zm-10.66,66.96h15.08l-.8,1h-15.89l1.61-1Zm14.28-62.94l.6,.8h-14.48l-1.01-.8h14.88Zm-10.66,59.12h13.87l-.8,1.01h-14.08l1.01-1.01Zm-.4-55.3h13.47l.8,1.01h-13.27l-1.01-1.01Zm3.42,51.28h13.07l-.6,1.01h-13.27l.8-1.01Zm-.2-47.25h12.67l.4,1.01h-12.47l-.6-1.01Zm2.41,43.43h12.47l-.4,.8h-12.47l.4-.8Zm-.2-39.61h12.27l.4,1h-12.06l-.6-1Zm1.81,4.02h11.86l.4,1h-11.66l-.6-1Zm.2,31.57h12.06l-.4,1.01h-11.86l.2-1.01Zm1.41-4.02h11.66l-.4,1h-11.66l.4-1Zm-.2-23.53h11.66l.2,.8h-11.66l-.2-.8Zm.8,3.82h11.46l.4,1.01h-11.66l-.2-1.01Zm.2,15.89h11.66l-.4,1h-11.46l.2-1Zm.4-4.02h11.46v1h-11.66l.2-1Zm0-7.84h11.46v1.01h-11.46v-1.01Zm.2,3.82h11.46v1.01h-11.46v-1.01Z"/><path d="M379.35,4.02h29.56V124.67h-29.56V4.02Zm22.12,115.02V9.65h-14.68V119.04h14.68Zm-12.67-107.58h10.66v1h-10.66v-1Zm0,4.02h10.66v1h-10.66v-1Zm0,4.02h10.66v1.01h-10.66v-1.01Zm0,4.02h10.66v1.01h-10.66v-1.01Zm0,4.02h10.66v1.01h-10.66v-1.01Zm0,4.02h10.66v1.01h-10.66v-1.01Zm0,4.02h10.66v1h-10.66v-1Zm0,4.02h10.66v1h-10.66v-1Zm0,4.02h10.66v1h-10.66v-1Zm0,4.02h10.66v1h-10.66v-1Zm0,4.02h10.66v1.01h-10.66v-1.01Zm0,4.02h10.66v1.01h-10.66v-1.01Zm0,4.02h10.66v1.01h-10.66v-1.01Zm0,4.02h10.66v1.01h-10.66v-1.01Zm0,4.02h10.66v1h-10.66v-1Z"/><path d="M492.96,0c22.32,0,37.8,8.24,50.47,21.11l-20.51,18.9c-8.24-7.44-18.5-12.06-29.96-12.06-21.52,0-35.39,16.09-35.39,36.4,0,22.32,15.89,36.4,35.99,36.4,21.11,0,31.37-11.66,32.17-23.33h-34.38v-25.54h66.36v11.46c0,35.59-20.91,65.35-64.75,65.35-38.21,0-65.35-28.35-65.35-64.35S454.75,0,492.96,0Zm0,123.06c38.81,0,57.31-25.14,57.31-58.51v-7.04h-51.48v14.28h34.99c-.2,16.49-12.47,34.59-40.82,34.59-25.94,0-43.03-18.5-43.03-42.03s17.09-42.03,43.03-42.03c10.66,0,21.11,3.82,29.56,9.65l11.66-11.26c-10.46-9.85-23.93-15.08-41.22-15.08-33.58,0-57.91,25.94-57.91,58.71s24.33,58.72,57.91,58.72Zm-55.7-63.14h10.86l-.2,1.01h-10.86l.2-1.01Zm-.2,4.02h10.86v1.01h-10.86v-1.01Zm0,4.02h10.86l.2,1.01h-10.86l-.2-1.01Zm.6-12.06h11.06l-.4,1.01h-10.86l.2-1.01Zm-.2,16.09h10.86l.4,1h-11.06l-.2-1Zm.8-20.11h11.26l-.4,1h-11.06l.2-1Zm-.2,24.13h11.06l.4,1h-11.06l-.4-1Zm1.01,4.02h11.26l.4,1h-11.46l-.2-1Zm1.21,4.02h11.66l.6,1h-12.06l-.2-1Zm1.41,4.02h12.47l.8,1.01h-12.67l-.6-1.01Zm2.01,4.02h13.27l1.01,1.01h-13.67l-.6-1.01Zm2.41,4.02h14.48l1.01,1.01h-14.88l-.6-1.01Zm3.02,4.02h16.09l1.21,1.01h-16.69l-.6-1.01Zm23.12,4.02l2.01,1h-20.71l-1.01-1h19.71Zm14.08,4.02c1.61,.2,4.42,.4,6.64,.4,2.81,0,4.62-.2,6.43-.4h31.57l-1.21,1h-71.38l-1.21-1h29.16Zm39.61,4.02l-1.41,1h-60.32l-1.41-1h63.14Zm-7.44,4.02l-2.61,1h-43.43l-2.61-1h48.66Zm-16.29,4.02c-1.61,.4-4.22,.6-9.25,.6-3.22,0-6.64-.2-9.45-.6h18.7Zm-.8-60.32h46.45v1.01h-46.45v-1.01Zm0,4.02h46.45v1.01h-46.45v-1.01Zm0,4.02h46.45v1.01h-46.45v-1.01Zm13.07,36.2h20.91l-1.01,1h-21.92l2.01-1Zm7.64-4.02h16.29l-.8,1.01h-17.09l1.61-1.01Zm4.42-4.02h14.08l-.8,1.01h-14.28l1.01-1.01Zm3.42-4.02h12.47l-.6,1.01h-12.87l1.01-1.01Zm2.21-4.02h12.06l-.6,1.01h-12.27l.8-1.01Zm1.61-4.02h11.46l-.4,1h-11.46l.4-1Zm1.41-4.02h11.06l-.4,1h-10.86l.2-1Zm.8-4.02h10.86l-.2,1h-11.06l.4-1Zm.4-4.02h10.86v1h-11.06l.2-1Z"/><path d="M577.01,4.02h29.56V124.67h-29.56V4.02Zm22.12,115.02V9.65h-14.68V119.04h14.68Zm-12.67-107.58h10.66v1h-10.66v-1Zm0,4.02h10.66v1h-10.66v-1Zm0,4.02h10.66v1.01h-10.66v-1.01Zm0,4.02h10.66v1.01h-10.66v-1.01Zm0,4.02h10.66v1.01h-10.66v-1.01Zm0,4.02h10.66v1.01h-10.66v-1.01Zm0,4.02h10.66v1h-10.66v-1Zm0,4.02h10.66v1h-10.66v-1Zm0,4.02h10.66v1h-10.66v-1Zm0,4.02h10.66v1h-10.66v-1Zm0,4.02h10.66v1.01h-10.66v-1.01Zm0,4.02h10.66v1.01h-10.66v-1.01Zm0,4.02h10.66v1.01h-10.66v-1.01Zm0,4.02h10.66v1.01h-10.66v-1.01Zm0,4.02h10.66v1h-10.66v-1Z"/><path d="M647.38,30.16h-27.15V4.02h84.05V30.16h-27.35V124.67h-29.56V30.16Zm22.12,88.88V24.53h27.35V9.65h-69.17v14.88h27.15V119.04h14.68Zm-39.81-106.37h65.15v1.01h-65.15v-1.01Zm0,4.02h65.15v1.01h-65.15v-1.01Zm0,4.02h65.15v1.01h-65.15v-1.01Z"/><path d="M752.14,0h5.23l59.12,124.67h-31.77l-6.03-12.47h-47.66l-5.83,12.47h-31.77L752.14,0Zm-32.37,119.04l33.78-72.79h2.81l33.38,72.79h16.29l-51.28-108.18-50.87,108.18h15.89Zm-2.61-23.93h11.06l-.6,1h-11.06l.6-1Zm1.81-4.02h11.06l-.6,1h-10.86l.4-1Zm2.01-4.02h10.86l-.6,1h-10.86l.6-1Zm1.81-4.02h10.86l-.6,1.01h-10.66l.4-1.01Zm2.01-4.02h10.86l-.6,1.01h-10.86l.6-1.01Zm1.81-4.02h10.86l-.6,1.01h-10.66l.4-1.01Zm1.81-4.02h10.86l-.6,1.01h-10.66l.4-1.01Zm2.01-4.02h10.86l-.6,1h-10.86l.6-1Zm1.81-4.02h10.86l-.6,1h-10.66l.4-1Zm44.04,43.83l-4.62-10.05h-33.98l-4.42,10.05h43.03Zm-42.03-47.86h10.86l-.6,1h-10.86l.6-1Zm1.81-4.02h10.86l-.6,1h-10.66l.4-1Zm2.01-4.02h10.86l-.6,1.01h-10.86l.6-1.01Zm0,52.28h32.58l.4,1.01h-33.38l.4-1.01Zm1.81-56.3h10.86l-.6,1.01h-10.66l.4-1.01Zm0,52.28h29.16l.6,1h-30.16l.4-1Zm28.55-8.24l-13.67-30.36h-.4l-13.87,30.36h27.95Zm-26.54-48.06h25.54l.6,1.01h-26.74l.6-1.01Zm1.81-4.02h21.92l.4,1.01h-22.72l.4-1.01Zm1.81-4.02h18.1l.6,1h-19.1l.4-1Zm2.01-4.02h14.28l.4,1h-15.28l.6-1Zm1.81-4.02h10.46l.6,1h-11.46l.4-1Zm2.01-4.02h6.64l.4,1h-7.64l.6-1Zm1.81-4.02h2.82l.6,1.01h-3.82l.4-1.01Zm1.61-3.42l.4,.8h-.8l.4-.8Zm4.22,31.57h10.46l.4,1.01h-10.26l-.6-1.01Zm1.81,4.02h10.46l.6,1.01h-10.46l-.6-1.01Zm1.81,4.02h10.66l.4,1h-10.46l-.6-1Zm1.81,4.02h10.66l.6,1h-10.66l-.6-1Zm1.81,4.02h10.86l.4,1h-10.66l-.6-1Zm1.81,4.02h10.86l.6,1h-10.86l-.6-1Zm1.81,4.02h11.06l.4,1.01h-10.86l-.6-1.01Zm1.81,4.02h11.06l.6,1.01h-11.06l-.6-1.01Zm13.07,4.02l.4,1.01h-11.06l-.6-1.01h11.26Zm1.81,4.02l.6,1.01h-11.46l-.6-1.01h11.46Zm2.01,4.02l.4,1h-11.46l-.6-1h11.66Zm1.81,4.02l.6,1h-11.66l-.6-1h11.66Zm2.01,4.02l.4,1h-11.86l-.6-1h12.06Z"/><path d="M829.36,4.02h29.56V99.33h52.48v25.34h-82.04V4.02Zm74.6,115.02v-14.08h-52.48V9.65h-14.68V119.04h67.16Zm-63.54-3.42h61.53v1.01h-62.54l1.01-1.01Zm4.22-4.02h57.31v1.01h-58.31l1.01-1.01Zm4.22-4.02h53.08v1.01h-54.29l1.21-1.01Z"/><path d="M972.93,4.02h77.82V30.16h-48.26v25.74h44.44v25.74h-44.44v43.03h-29.56V4.02Zm22.12,115.02v-43.03h44.44v-14.48h-44.44V24.53h48.26V9.65h-62.94V119.04h14.68Zm-11.86-106.57h58.11v1.01h-57.11l-1-1.01Zm4.02,4.02h54.09v1.01h-53.09l-1-1.01Zm4.02,4.02h50.07v1h-49.06l-1-1Zm3.82,43.63h42.43v1.01h-42.43v-1.01Zm0,4.02h42.43v1.01h-42.43v-1.01Zm0,4.02h42.43v1.01h-42.43v-1.01Z"/><path d="M1063.01,4.02h29.36V79.63c0,16.09,7.64,21.72,17.9,21.72,11.26,0,18.3-5.63,18.3-21.72V4.02h29.56V84.05c0,28.55-21.31,44.64-47.86,44.64s-47.25-16.89-47.25-44.64V4.02Zm47.25,119.04c22.32,0,40.42-14.08,40.42-39.01V9.65h-14.68V79.63c0,20.31-9.85,27.35-25.74,27.35-14.48,0-25.34-7.04-25.34-27.35V9.65h-14.48V84.05c0,24.33,16.69,39.01,39.81,39.01Zm-37.8-68.77h10.46v1h-10.46v-1Zm0,4.02h10.46v1h-10.46v-1Zm0,4.02h10.46v1.01h-10.46v-1.01Zm0,4.02h10.46v1.01h-10.46v-1.01Zm0,4.02h10.46v1.01h-10.46v-1.01Zm0,4.02h10.46v1.01h-10.46v-1.01Zm0,4.02h10.46v1h-10.46v-1Zm0,4.02h10.46l.2,1h-10.66v-1Zm0,4.02h10.66l.4,1h-11.06v-1Zm.4,4.02h11.06l.4,1h-11.26l-.2-1Zm.8,4.02h11.66l.4,1.01h-11.86l-.2-1.01Zm1.21,4.02h12.27l1.01,1.01h-13.07l-.2-1.01Zm1.81,4.02h13.88l1.21,1.01h-14.48l-.6-1.01Zm19.91,4.02l2.41,1.01h-19.1l-.8-1.01h17.49Zm41.62,4.02l-1.21,1h-53.29l-1.01-1h55.5Zm-5.43,4.02l-1.61,1h-41.83l-1.41-1h44.84Zm-8.04,4.02l-3.82,1h-21.51l-3.62-1h28.96Zm0-12.07h16.89l-.8,1.01h-18.7l2.61-1.01Zm5.83-4.02h13.47l-.4,1.01h-14.08l1.01-1.01Zm3.22-4.02h12.27l-.4,1.01h-12.67l.8-1.01Zm1.81-4.02h11.86l-.4,1.01h-11.86l.4-1.01Zm1.41-4.02h11.26l-.4,1h-11.26l.4-1Zm.6-4.02h11.06l-.2,1h-11.06l.2-1Zm.2-4.02h10.86v1h-10.86v-1Zm.2-28.15h10.66v1h-10.66v-1Zm0,4.02h10.66v1h-10.66v-1Zm0,4.02h10.66v1.01h-10.66v-1.01Zm0,4.02h10.66v1.01h-10.66v-1.01Zm0,4.02h10.66v1.01h-10.66v-1.01Zm0,4.02h10.66v1.01h-10.66v-1.01Zm0,4.02h10.66v1h-10.66v-1Z"/><path d="M1198.93,30.16h-27.15V4.02h84.05V30.16h-27.35V124.67h-29.56V30.16Zm22.12,88.88V24.53h27.35V9.65h-69.17v14.88h27.15V119.04h14.68Zm-39.81-106.37h65.15v1.01h-65.15v-1.01Zm0,4.02h65.15v1.01h-65.15v-1.01Zm0,4.02h65.15v1.01h-65.15v-1.01Z"/><path d="M1269.51,4.02h29.36V79.63c0,16.09,7.64,21.72,17.9,21.72,11.26,0,18.3-5.63,18.3-21.72V4.02h29.56V84.05c0,28.55-21.31,44.64-47.86,44.64s-47.25-16.89-47.25-44.64V4.02Zm47.25,119.04c22.32,0,40.42-14.08,40.42-39.01V9.65h-14.68V79.63c0,20.31-9.85,27.35-25.74,27.35-14.48,0-25.34-7.04-25.34-27.35V9.65h-14.48V84.05c0,24.33,16.69,39.01,39.81,39.01Zm-37.8-68.77h10.46v1h-10.46v-1Zm0,4.02h10.46v1h-10.46v-1Zm0,4.02h10.46v1.01h-10.46v-1.01Zm0,4.02h10.46v1.01h-10.46v-1.01Zm0,4.02h10.46v1.01h-10.46v-1.01Zm0,4.02h10.46v1.01h-10.46v-1.01Zm0,4.02h10.46v1h-10.46v-1Zm0,4.02h10.46l.2,1h-10.66v-1Zm0,4.02h10.66l.4,1h-11.06v-1Zm.4,4.02h11.06l.4,1h-11.26l-.2-1Zm.8,4.02h11.66l.4,1.01h-11.86l-.2-1.01Zm1.21,4.02h12.27l1.01,1.01h-13.07l-.2-1.01Zm1.81,4.02h13.88l1.21,1.01h-14.48l-.6-1.01Zm19.91,4.02l2.41,1.01h-19.1l-.8-1.01h17.49Zm41.62,4.02l-1.21,1h-53.29l-1.01-1h55.5Zm-5.43,4.02l-1.61,1h-41.83l-1.41-1h44.84Zm-8.04,4.02l-3.82,1h-21.51l-3.62-1h28.96Zm0-12.07h16.89l-.8,1.01h-18.7l2.61-1.01Zm5.83-4.02h13.47l-.4,1.01h-14.08l1.01-1.01Zm3.22-4.02h12.27l-.4,1.01h-12.67l.8-1.01Zm1.81-4.02h11.86l-.4,1.01h-11.86l.4-1.01Zm1.41-4.02h11.26l-.4,1h-11.26l.4-1Zm.6-4.02h11.06l-.2,1h-11.06l.2-1Zm.2-4.02h10.86v1h-10.86v-1Zm.2-28.15h10.66v1h-10.66v-1Zm0,4.02h10.66v1h-10.66v-1Zm0,4.02h10.66v1.01h-10.66v-1.01Zm0,4.02h10.66v1.01h-10.66v-1.01Zm0,4.02h10.66v1.01h-10.66v-1.01Zm0,4.02h10.66v1.01h-10.66v-1.01Zm0,4.02h10.66v1h-10.66v-1Z"/><path d="M1383.92,4.02h50.47c25.94,0,42.83,15.68,42.83,38.41,0,21.11-10.66,32.98-28.55,37.4l32.58,44.84h-37l-30.76-45.04v45.04h-29.56V4.02Zm22.12,115.02v-43.23h13.27l29.56,43.23h19.91l-30.16-41.62v-1.81c20.51-2.41,31.17-12.67,31.17-31.97,0-20.71-15.28-33.98-35.39-33.98h-43.03V119.04h14.68Zm0-95.51h30.36c12.27,0,19.3,9.65,19.3,18.9,0,10.66-7.44,19.5-18.5,19.5h-31.17V23.53Zm.2-11.66h28.15l9.45,1h-37.6v-1Zm0,4.02h45.24l1.61,1h-46.85v-1Zm0,4.02h51.28l1.01,1h-52.28v-1Zm0,44.24h54.29l-1.01,1.01h-53.29v-1.01Zm0,4.02h49.06l-1.81,1.01h-47.25v-1.01Zm0,4.02h39.21l-5.23,1.01h-33.98v-1.01Zm30.97-15.88c6.64,0,11.06-6.84,11.06-13.88s-5.23-13.27-11.86-13.27h-22.92v27.15h23.73Zm-15.28,19.91h14.28v1h-13.67l-.6-1Zm2.61,4.02h13.27l1.01,1h-13.67l-.6-1Zm2.81,4.02h13.47l.8,1h-13.67l-.6-1Zm2.61,4.02h13.67l1,1h-14.08l-.6-1Zm16.69,4.02l.8,1.01h-14.08l-.6-1.01h13.87Zm2.82,4.02l1,1.01h-14.48l-.6-1.01h14.08Zm3.02,4.02l.8,1.01h-14.48l-.6-1.01h14.28Zm2.81,4.02l1.01,1.01h-14.68l-.6-1.01h14.28Zm3.02,4.02l.8,1h-14.68l-.6-1h14.48Zm3.02-84.45l.8,1h-14.08l-2.21-1h15.48Zm-.2,88.48l1,1h-14.88l-.6-1h14.48Zm-12.07-52.28h14.68l-.8,1.01h-15.48l1.61-1.01Zm15.08,56.3l.6,1h-14.68l-.6-1h14.68Zm-.2-88.48l.4,1.01h-11.26l-1.41-1.01h12.27Zm-10.66,28.15h12.47l-.6,1.01h-12.87l1-1.01Zm1.41-24.13h11.06l.4,1.01h-10.86l-.6-1.01Zm1.01,20.11h11.26l-.4,1h-11.46l.6-1Zm1.01-16.09h10.25v1.01h-9.65l-.6-1.01Zm.2,12.07h10.46v1h-10.66l.2-1Zm.6-8.04h10.05v1.01h-10.05v-1.01Zm.2,4.02h10.05v1h-10.05v-1Z"/><path d="M1491.69,4.02h79.83V30.16h-50.27v21.72h46.45v25.74h-46.45v21.72h52.48v25.34h-82.04V4.02Zm74.6,115.02v-14.08h-52.48v-32.98h46.45v-14.48h-46.45V24.53h50.27V9.65h-64.95V119.04h67.16Zm-63.54-3.42h61.53v1.01h-62.54l1-1.01Zm-.8-103.15h60.12v1.01h-59.12l-1-1.01Zm4.02,4.02h56.1v1.01h-55.1l-1-1.01Zm1,95.11h57.31v1.01h-58.31l1-1.01Zm3.02-91.09h52.08v1h-51.07l-1.01-1Zm1.21,87.07h53.09v1.01h-54.29l1.21-1.01Zm2.61-47.46h44.44v1.01h-44.44v-1.01Zm0,4.02h44.44v1.01h-44.44v-1.01Zm0,4.02h44.44v1.01h-44.44v-1.01Z"/><path d="M1616.16,89.28c0,7.04,5.63,12.67,12.47,12.67,7.44,0,12.06-4.22,12.06-10.46,0-9.05-11.86-11.66-21.72-15.08-20.31-7.24-31.57-16.69-31.57-37.4S1605.7,0,1628.43,0c26.74,0,39.41,17.09,41.02,39.41h-27.75c0-6.84-4.22-12.47-12.47-12.47-6.43,0-12.67,3.82-12.67,11.66,0,9.05,11.06,10.66,21.31,13.67,21.52,6.43,31.57,18.5,31.57,37.4,0,21.31-18.1,39.01-40.82,39.01-26.34,0-41.22-17.7-41.22-39.41h28.75Zm12.47,33.78c18.7,0,33.98-15.08,33.98-33.38,0-20.31-12.07-27.75-30.56-32.98-11.86-3.42-22.12-6.23-22.12-18.1,0-10.46,7.84-17.29,18.7-17.29,12.47,0,16.69,7.44,18.5,12.47h15.08c-1.21-11.86-10.05-28.15-33.58-28.15-18.7,0-34.38,15.08-34.38,33.38,0,14.88,5.63,24.33,27.75,32.17,11.46,4.22,25.34,7.24,25.34,20.31,0,10.66-9.25,16.09-18.7,16.09-10.26-.2-16.69-6.03-18.5-12.67h-15.68c.4,15.08,15.08,28.15,34.18,28.15Zm-32.37-86.26h11.66v1h-11.66v-1Zm0,4.02h11.66l.2,1.01h-11.86v-1.01Zm.8-8.24h11.66l-.4,1.21h-11.66l.4-1.21Zm-.4,12.47h12.07l.4,1.01h-12.27l-.2-1.01Zm1.01,4.02h13.47l-.2-.2,1.21,1.21h-14.28l-.2-1.01Zm.4-20.51h12.27l-.6,1h-11.86l.2-1Zm2.01-4.22h13.87l-1.41,1.21h-13.07l.6-1.21Zm-.4,28.96h16.29l1.61,1.01h-17.29l-.6-1.01Zm3.02-32.98h17.69l-2.21,1h-16.29l.8-1Zm.2,37h23.12l3.82,1.01h-25.94l-1-1.01Zm3.62-41.02h22.12v1h-23.33l1.21-1Zm1,45.04h31.57l3.02,1.21h-32.37l-2.21-1.21Zm5.03-49.27h16.09v1.01h-17.7l1.61-1.01Zm35.19,53.49l1.21,1h-31.97l-1.61-1h32.37Zm-23.33-57.51h4.22v1.01h-9.05l4.83-1.01Zm28.75,61.53l1.01,1.21h-27.55l-3.02-1.21h29.56Zm-24.53,41.22h22.92l-1.01,1.01h-21.92v-1.01Zm0,4.02h18.1l-1.41,1h-16.69v-1Zm0,4.22h10.25l-3.82,1h-6.43v-1Zm27.95-45.24l.4,1h-19.5l-2.21-1h21.32Zm-15.68,32.78h14.28l-.6,.8-.2,.4h-15.89l2.41-1.21Zm17.49-28.75l.4,1h-14.68l-1.21-1h15.48Zm-12.87,24.73h11.86l-.6,1.01h-12.27l1.01-1.01Zm1-20.51h13.27l.4,1h-13.07l-.6-1Zm1.61,16.29h11.06l-.4,1.21h-11.26l.6-1.21Zm.4-12.27h11.86v1.01h-11.66l-.2-1.01Zm.6,8.24h11.06l-.2,1.01h-11.06l.2-1.01Zm.2-4.02h11.26l-.2,1.01h-11.06v-1.01Z"/></g><polyline class="cls-1" points="0 67.6 207.34 67.6 207.34 20.6 207.34 105.79"/><polyline class="cls-1" points="1919.99 67.31 1712.65 67.31 1712.65 20.31 1712.65 105.5"/></g></svg>