<?xml version="1.0" encoding="UTF-8"?><svg id="Layer_2" xmlns="http://www.w3.org/2000/svg" viewBox="0 0 987.68 279.46"><defs><style>.cls-1{stroke:#722257;}.cls-1,.cls-2,.cls-3,.cls-4{fill:none;stroke-miterlimit:10;stroke-width:33.06px;}.cls-2{stroke:#f2a53b;}.cls-3{stroke:#329da5;}.cls-4{stroke:#007445;}</style></defs><g id="Layer_1-2"><g><path class="cls-2" d="M973.39,99.15s-96.52,50.26-204.06,37.04c-107.54-13.22-213.32-71.4-281.45-56.06s-151.87,84.12-245.92,71.43C147.9,138.87,68.39,99.73,.96,97.09"/><path class="cls-3" d="M977.84,155.01s-96.52,50.26-204.06,37.04c-107.54-13.22-213.32-71.4-281.45-56.06-68.14,15.35-151.87,84.12-245.92,71.43-94.05-12.69-173.56-51.83-240.99-54.47"/><path class="cls-4" d="M973.08,38.1s-96.52,50.26-204.06,37.04c-107.54-13.22-213.32-71.4-281.45-56.06-68.14,15.35-151.87,84.12-245.92,71.43C147.59,77.83,68.08,38.69,.65,36.05"/><path class="cls-1" d="M980.04,208.96s-96.52,50.26-204.06,37.04c-107.54-13.22-213.32-71.4-281.45-56.06-68.14,15.35-151.87,84.12-245.92,71.43-94.05-12.69-173.56-51.83-240.99-54.47"/></g></g></svg>