<?xml version="1.0" encoding="UTF-8"?><svg id="Layer_2" xmlns="http://www.w3.org/2000/svg" viewBox="0 0 1888.83 983.97"><defs><style>.cls-1{stroke:#722257;}.cls-1,.cls-2,.cls-3,.cls-4{fill:none;stroke-miterlimit:10;stroke-width:33.06px;}.cls-2{stroke:#f2a53b;}.cls-3{stroke:#329da5;}.cls-4{stroke:#007445;}</style></defs><g id="Layer_1-2"><g><path class="cls-2" d="M119.17,972.86s46.29-98.49,28.7-205.4c-17.59-106.91-80.04-210.23-67.48-278.93,12.56-68.71,77.86-155.17,61.35-248.63C125.22,146.44,82.87,68.59,77.48,1.32"/><path class="cls-3" d="M175.16,975.03s46.29-98.49,28.7-205.4c-17.59-106.91-80.04-210.23-67.48-278.93,12.56-68.71,77.86-155.17,61.35-248.63C181.22,148.61,138.87,70.76,133.48,3.49"/><path class="cls-4" d="M58.16,975.03s46.29-98.49,28.7-205.4c-17.59-106.91-80.04-210.23-67.48-278.93,12.56-68.71,77.86-155.17,61.35-248.63C64.22,148.61,21.87,70.76,16.48,3.49"/><path class="cls-1" d="M229.16,975.03s46.29-98.49,28.7-205.4c-17.59-106.91-80.04-210.23-67.48-278.93,12.56-68.71,77.86-155.17,61.35-248.63C235.22,148.61,192.87,70.76,187.48,3.49"/></g><g><path class="cls-2" d="M1769.66,974.77s-46.29-98.49-28.7-205.4,80.04-210.23,67.48-278.93c-12.56-68.71-77.86-155.17-61.35-248.63,16.51-93.46,58.86-171.31,64.25-238.57"/><path class="cls-3" d="M1713.66,976.94s-46.29-98.49-28.7-205.4c17.59-106.91,80.04-210.23,67.48-278.93-12.56-68.71-77.86-155.17-61.35-248.63,16.51-93.46,58.86-171.31,64.25-238.57"/><path class="cls-4" d="M1830.66,976.94s-46.29-98.49-28.7-205.4c17.59-106.91,80.04-210.23,67.48-278.93-12.56-68.71-77.86-155.17-61.35-248.63,16.51-93.46,58.86-171.31,64.25-238.57"/><path class="cls-1" d="M1659.66,976.94s-46.29-98.49-28.7-205.4c17.59-106.91,80.04-210.23,67.48-278.93-12.56-68.71-77.86-155.17-61.35-248.63,16.51-93.46,58.86-171.31,64.25-238.57"/></g></g></svg>